HIERARCHY
ROOT Hips
{
	OFFSET 0.0000 0.0000 0.0000
	CHANNELS 6 Xposition Yposition Zposition Zrotation Xrotation Yrotation
	JOINT Ab
	{
		OFFSET -0.0000 8.1305 -0.0000
		CHANNELS 3 Zrotation Xrotation Yrotation
		JOINT Chest
		{
			OFFSET -0.0000 26.2902 -0.0000
			CHANNELS 3 Zrotation Xrotation Yrotation
			JOINT Neck
			{
				OFFSET -0.0000 26.2902 0.0000
				CHANNELS 3 Zrotation Xrotation Yrotation
				JOINT Head
				{
					OFFSET -0.0000 10.8167 0.0000
					CHANNELS 3 Zrotation Xrotation Yrotation
					End Site
					{
						OFFSET -0.0000 16.7167 0.0000
					}
				}
			}
			JOINT LeftCollar
			{
				OFFSET -0.0000 26.2902 0.0000
				CHANNELS 3 Zrotation Xrotation Yrotation
				JOINT LeftShoulder
				{
					OFFSET 19.6667 -0.0000 0.0000
					CHANNELS 3 Zrotation Xrotation Yrotation
					JOINT LeftElbow
					{
						OFFSET 27.2190 0.0000 0.0000
						CHANNELS 3 Zrotation Xrotation Yrotation
						JOINT LeftWrist
						{
							OFFSET 30.7431 0.0000 0.0000
							CHANNELS 3 Zrotation Xrotation Yrotation
							End Site
							{
								OFFSET 0.0000 -14.7500 0.0000
							}
						}
					}
				}
			}
			JOINT RightCollar
			{
				OFFSET -0.0000 26.2902 0.0000
				CHANNELS 3 Zrotation Xrotation Yrotation
				JOINT RightShoulder
				{
					OFFSET -19.6667 0.0000 0.0000
					CHANNELS 3 Zrotation Xrotation Yrotation
					JOINT RightElbow
					{
						OFFSET -27.2190 0.0000 0.0000
						CHANNELS 3 Zrotation Xrotation Yrotation
						JOINT RightWrist
						{
							OFFSET -30.7431 0.0000 0.0000
							CHANNELS 3 Zrotation Xrotation Yrotation
							End Site
							{
								OFFSET -0.0000 -14.7500 0.0000
							}
						}
					}
				}
			}
		}
	}
	JOINT LeftHip
	{
		OFFSET 11.8000 0.0000 0.0000
		CHANNELS 3 Zrotation Xrotation Yrotation
		JOINT LeftKnee
		{
			OFFSET -0.0000 -39.7832 0.0000
			CHANNELS 3 Zrotation Xrotation Yrotation
			JOINT LeftAnkle
			{
				OFFSET -0.0000 -41.7317 0.0000
				CHANNELS 3 Zrotation Xrotation Yrotation
				End Site
				{
					OFFSET -0.0000 -4.9167 16.7167
				}
			}
		}
	}
	JOINT RightHip
	{
		OFFSET -11.8000 0.0000 0.0000
		CHANNELS 3 Zrotation Xrotation Yrotation
		JOINT RightKnee
		{
			OFFSET -0.0000 -39.7832 0.0000
			CHANNELS 3 Zrotation Xrotation Yrotation
			JOINT RightAnkle
			{
				OFFSET -0.0000 -41.7317 0.0000
				CHANNELS 3 Zrotation Xrotation Yrotation
				End Site
				{
					OFFSET -0.0000 -4.9167 16.7167
				}
			}
		}
	}
}
MOTION
Frames: 8
Frame Time: 0.010000
-19.5013 96.9796 177.3968 358.2455 356.9791 181.7625 357.4576 348.1150 0.0110 2.3332 10.5711 0.0609 356.9114 356.5705 0.2971 1.1971 5.0605 0.3378 339.9852 357.4201 14.6213 318.5022 59.1111 339.6282 8.9559 357.2879 326.2710 88.3397 356.6809 347.2063 27.0356 355.8471 342.8473 46.1466 47.0837 3.6861 340.5968 354.4893 31.4724 270.5492 354.2982 10.0230 355.2360 2.6455 359.1512 357.7449 6.0852 5.0775 354.9331 352.3112 13.9592 357.9730 5.1784 11.3566 6.7361 6.4750 10.4409 348.3364 343.9833 309.8593 
-19.5418 96.9731 177.3806 358.2579 356.9414 181.7455 357.4473 348.1310 0.0192 2.3279 10.5881 0.0623 356.9387 356.5883 0.3116 1.1618 5.1251 0.3512 339.9979 357.4114 14.6193 318.5206 59.1399 339.5809 9.0154 357.2837 326.3245 88.5173 356.6469 347.3164 27.0139 355.8600 342.8386 46.1506 47.1501 3.7364 340.5488 354.4633 31.5081 270.9064 354.2210 9.3940 355.2231 2.6172 359.1254 357.7351 6.0920 5.0987 354.9930 352.2955 13.9774 357.9545 5.1154 11.3401 6.7498 6.5374 10.4376 348.3246 343.9634 309.8899 
-19.5864 96.9683 177.3618 358.2669 356.9028 181.7310 357.4301 348.1369 0.0226 2.3257 10.6241 0.0684 357.0027 356.5888 0.3134 1.0642 5.2089 0.3551 340.0151 357.4088 14.6033 318.4680 59.1314 339.6301 9.0132 357.2592 326.3238 88.6354 356.6363 347.3379 26.9932 355.8428 342.8425 46.1678 47.2065 3.7424 340.5001 354.4443 31.5167 271.0885 354.1915 9.3245 355.2049 2.5898 359.0843 357.7245 6.1007 5.1122 354.9460 352.2668 13.9987 357.9282 5.0692 11.3785 6.7678 6.5665 10.3976 348.3136 343.9636 309.9353 
-19.6297 96.9635 177.3446 358.2744 356.8563 181.7109 357.4069 348.1367 0.0335 2.3271 10.6641 0.0820 357.0735 356.5658 0.3088 0.9495 5.3192 0.3529 340.0234 357.4102 14.5892 318.4639 59.1184 339.6379 9.0158 357.2653 326.3172 88.6626 356.6234 347.3611 26.9834 355.8570 342.8651 46.1917 47.1889 3.7178 340.5103 354.4514 31.5708 271.0965 354.2291 9.3053 355.1878 2.5535 359.0517 357.7111 6.1088 5.1277 354.9309 352.2371 14.0213 357.9008 4.9957 11.3622 6.7885 6.6379 10.4270 348.3264 343.9125 309.9144 
-19.6753 96.9593 177.3255 358.2815 356.8113 181.6907 357.3807 348.1396 0.0460 2.3308 10.6989 0.0937 357.1000 356.5738 0.3076 0.9251 5.3903 0.3512 340.0165 357.4123 14.5829 318.5182 59.1022 339.5947 9.0055 357.2715 326.3140 88.6130 356.6193 347.3090 26.9770 355.8709 342.8904 46.2168 47.1414 3.6950 340.5328 354.4503 31.6160 271.1028 354.2374 9.3362 355.1186 2.4166 359.0496 357.7953 6.3134 5.2137 354.9957 352.1290 13.9258 357.8690 4.9244 11.3171 6.8089 6.7110 10.4907 348.2214 343.9347 309.8635 
-19.7243 96.9529 177.3109 358.2877 356.7538 181.6828 357.3734 348.1442 0.0434 2.2964 10.7216 0.0953 357.1289 356.5728 0.2978 0.9204 5.4672 0.3399 340.0376 357.4208 14.5652 318.4814 59.0680 339.6184 9.0080 357.2642 326.3203 88.5277 356.6094 347.1968 26.9791 355.8474 342.8943 46.2158 47.1787 3.7185 340.4999 354.4237 31.6095 271.1650 354.2391 9.3638 355.0734 2.3248 359.0081 357.8254 6.4035 5.2436 354.9783 352.0576 13.9061 357.8339 4.8329 11.2523 6.8367 6.7950 10.5531 347.9864 344.0561 309.8433 
-19.7708 96.9459 177.3009 358.3014 356.6950 181.6728 357.3626 348.1586 0.0451 2.2845 10.7440 0.0917 357.1662 356.5602 0.2910 0.8607 5.5521 0.3332 340.0394 357.4285 14.5688 318.5127 59.0396 339.5857 9.0094 357.2602 326.3124 88.4223 356.6211 347.1252 26.9795 355.8764 342.9114 46.1804 47.1494 3.7422 340.5938 354.4574 31.6789 271.1422 354.2657 9.3794 355.0600 2.2719 358.9676 357.8150 6.4084 5.2603 355.0824 352.0522 13.9117 357.8052 4.7338 11.2151 6.8706 6.8814 10.5723 348.3213 343.7739 309.8691 
-19.8181 96.9406 177.2829 358.3146 356.6457 181.6562 357.3468 348.1673 0.0562 2.2809 10.7934 0.1079 357.3362 356.4262 0.2833 0.5798 5.8353 0.3381 340.0059 357.4168 14.5651 318.6781 59.0130 339.4731 8.9775 357.2803 326.3530 88.2352 356.5510 346.9752 26.9532 355.8843 342.8813 46.1466 47.2501 3.8609 340.4900 354.4240 31.6394 271.2060 354.2952 9.3386 355.0417 2.2390 358.9152 357.8085 6.4068 5.2816 355.0304 352.0230 13.9328 357.7755 4.6533 11.2096 6.9073 6.9538 10.5912 348.3250 343.7331 309.8504 
